<svg xmlns="http://www.w3.org/2000/svg" width="1521" height="375" viewBox="0 0 1521 375">
  <defs>
    <style>
      .cls-1 {
        fill: #d8e3ff;
      }

      .cls-2, .cls-3 {
        fill: #504b8e;
      }

      .cls-2 {
        fill-rule: evenodd;
      }

      .cls-3 {
        font-size: 12px;
        font-family: Futura;
        font-weight: 700;
      }
    </style>
  </defs>
  <circle class="cls-1" cx="220.5" cy="160.5" r="150.5"/>
  <path id="Shape_43_1" data-name="Shape 43 1" class="cls-2" d="M21.477,168.218a10.531,10.531,0,0,0,2.831,5.414,19.052,19.052,0,0,0,5.01,3.565,45.079,45.079,0,0,0,11.222,3.87,89.275,89.275,0,0,0,11.792,1.527c4.772,0.361,9.564.462,15.476,0.726,3.8-.19,8.74-0.206,13.628-0.731a109.582,109.582,0,0,0,24.369-5.473c0.388-.135.78-0.262,1.157-0.424a2.46,2.46,0,0,0,1.31-2.387,2.693,2.693,0,0,0-1.4-2.376,3.676,3.676,0,0,0-1.163-.363c-9.149-.973-18.025-3.252-26.831-5.813-7.092-2.063-14.132-4.308-21.2-6.445A181.173,181.173,0,0,0,39.04,154.38c-0.537-.1-1.071-0.226-1.61-0.315a16.686,16.686,0,0,0-11.037,2.276,8.476,8.476,0,0,0-3.966,4.586A13.118,13.118,0,0,0,21.477,168.218Zm15.428-22.162a18.961,18.961,0,0,0,2.724.905,52.3,52.3,0,0,1,11.049,4.346A175.936,175.936,0,0,0,94.71,166.7a88.515,88.515,0,0,0,14.7,2.038c0.31-.027,1.125-0.066,1.931-0.177a1.738,1.738,0,0,0,1.005-2.323,6.41,6.41,0,0,0-1.052-1.253q-2.225-1.833-4.516-3.583c-7.517-5.767-15.288-11.169-23.173-16.4-4.569-3.035-9.187-6-13.818-8.933-3.013-1.912-5.95-3.925-8.762-6.131-1.51-1.184-3.091-2.278-4.653-3.394a13.959,13.959,0,0,0-5.285-2.153,10.687,10.687,0,0,0-8.629,1.6,27.048,27.048,0,0,0-8.22,9.1,10.238,10.238,0,0,0-1.247,4.764A6.135,6.135,0,0,0,36.905,146.056ZM55.37,121.43c0.877,0.869,1.775,1.718,2.7,2.532a87.006,87.006,0,0,0,10.923,8.024c3.585,2.272,7.2,4.5,10.781,6.776,8.671,5.5,17.263,11.134,25.512,17.275a5,5,0,0,0,2.489,1.344,1.529,1.529,0,0,0,1.077-.435,1.583,1.583,0,0,0,.386-1.093,2.536,2.536,0,0,0-.5-1.116c-0.534-.8-1.083-1.593-1.678-2.346-2.47-3.128-4.9-6.287-7.452-9.347a245.093,245.093,0,0,0-17.067-18.431c-1.963-1.916-3.99-3.772-6.079-5.545a30.428,30.428,0,0,0-8.368-5.132,18.487,18.487,0,0,0-6-1.376,9.4,9.4,0,0,0-6.312,2.45,5.564,5.564,0,0,0-1.083,5.4A3.246,3.246,0,0,0,55.37,121.43Zm15.374-19.99a45.159,45.159,0,0,0,5.908,7.4c7.794,7.771,14.715,16.307,21.564,24.909,1.2,1.5,2.463,2.946,3.708,4.408a0.457,0.457,0,0,0,.368.146,0.388,0.388,0,0,0,.251-0.6c-1.549-3.224-2.98-6.514-4.688-9.651A260.892,260.892,0,0,0,81.7,102.158c-1.428-2.017-2.969-3.956-4.515-5.885-1.831-2.285-4.392-3.17-7.151-3.587a2.078,2.078,0,0,0-2.118,2.431,13.894,13.894,0,0,0,.383,1.558A21.271,21.271,0,0,0,70.744,101.44ZM90.068,90.567a214.321,214.321,0,0,0,9.6,30.332,84.754,84.754,0,0,0,4.764,10.081c2.719,4.787,5.444,9.574,8.257,14.306,1.193,2.007,2.6,3.884,3.94,5.8a11.2,11.2,0,0,0,1.091,1.228,1.259,1.259,0,0,0,1.492.236,1.6,1.6,0,0,0,.771-1.367,3.062,3.062,0,0,0-.064-0.821,121.838,121.838,0,0,1-2.4-20.945c-0.385-8.837-.45-17.665-0.04-26.5,0.256-5.515.2-11.043,0.78-16.546a31.651,31.651,0,0,0-.649-9.473,17.421,17.421,0,0,0-1.147-3.53,11.318,11.318,0,0,0-7.449-6.6,18.328,18.328,0,0,0-2.792-.644c-1.08-.146-2.179-0.146-2.728-0.177a26.379,26.379,0,0,0-6.23.635,10.573,10.573,0,0,0-7.988,8.041,20.233,20.233,0,0,0-.559,8.619C89.1,85.7,89.486,88.158,90.068,90.567Zm27.478,87.955a0.946,0.946,0,0,0,.289,1.118,0.966,0.966,0,0,0,.686.357,19.949,19.949,0,0,0,2.316-.781,1.175,1.175,0,0,0,.616-0.519,9.769,9.769,0,0,0,1.1-3.076,0.853,0.853,0,0,0-.8-0.759,2.213,2.213,0,0,0-.781.172A11.066,11.066,0,0,0,117.545,178.522Zm7.009-14.337a2.586,2.586,0,0,0,.133-0.392,3.965,3.965,0,0,0-1-3.426,1.328,1.328,0,0,0-1.065-.4,1.79,1.79,0,0,0-.811.827,2.485,2.485,0,0,0-.187.815,4.432,4.432,0,0,0,1.253,2.944A1.062,1.062,0,0,0,124.554,164.185Zm-2.227-58.179,0.15,0c0.08,1.794.213,3.587,0.229,5.382,0.066,7.187.555,14.354,1.09,21.514a139.68,139.68,0,0,0,2.376,18.053,8.674,8.674,0,0,0,1.062,3.1,1.21,1.21,0,0,0,1.792.052,10,10,0,0,0,.98-1.793c1.321-3.627,2.668-7.247,3.879-10.911,4.978-15.062,9.455-30.271,12.966-45.76,0.672-2.964,1.209-5.947,1.674-8.949a16.707,16.707,0,0,0-.3-6.572,8.55,8.55,0,0,0-6.833-6.877,13.233,13.233,0,0,0-5.279-.181,25.225,25.225,0,0,0-7.068,2.023,11.183,11.183,0,0,0-6.305,8.178,37.893,37.893,0,0,0-.554,4.515c-0.1,1.237-.083,2.484-0.068,3.728C122.176,96.341,122.255,101.173,122.327,106.006Zm13.8,36.381c-0.26.784-.524,1.569-0.719,2.371a2.051,2.051,0,0,0,.86,2.17,2.175,2.175,0,0,0,3.267-.234c0.767-.967,1.477-1.984,2.171-3.009A203.647,203.647,0,0,0,155.5,119.73c2.134-4.317,4.092-8.725,6.076-13.117a46.345,46.345,0,0,0,2.4-7.032,38.68,38.68,0,0,0,.93-6.85,36.9,36.9,0,0,0-.455-3.81,8.534,8.534,0,0,0-3.769-5.687,4.619,4.619,0,0,0-2.311-.746,3.156,3.156,0,0,0-2.907,1.209,31.631,31.631,0,0,0-2.377,3.848,58.953,58.953,0,0,0-4.651,12.794C144.928,114.536,140.724,128.52,136.122,142.387Zm14.409-6.066a1.35,1.35,0,0,0-.116.695c0,0.253.581,0.061,1.023-.387q2.457-2.5,4.9-5c3.27-3.335,6.521-6.687,9.817-10q6.108-6.132,12.727-11.7a52.632,52.632,0,0,0,6.214-6.007A16.38,16.38,0,0,0,187.8,99.8c0.7-1.613-.177-3.016-2.085-3.006a8.136,8.136,0,0,0-5.643,2.06c-1.015.921-2.042,1.838-2.983,2.835-1.791,1.9-3.565,3.815-5.271,5.791a244.082,244.082,0,0,0-15.255,19.478C154.436,129.994,152.524,133.187,150.531,136.321Zm11.512-5.9A82.936,82.936,0,0,0,147.815,142.9a128.443,128.443,0,0,0-10.095,12.536,24.489,24.489,0,0,0-1.449,2.488,1.277,1.277,0,0,0,.935,1.573,2.553,2.553,0,0,0,.808.048,3.949,3.949,0,0,0,1.156-.4c7.652-4.388,15.893-7.371,24.151-10.3,5.675-2.011,11.387-3.915,17.085-5.859,5.446-1.857,11-3.32,16.6-4.625,1.06-.246,2.154-0.35,3.236-0.495,1.761-.237,3.525-0.453,5.287-0.681,0.271-.036.543-0.075,0.811-0.129a8.069,8.069,0,0,0,6.857-6.734A14.463,14.463,0,0,0,211,118.487a11.485,11.485,0,0,0-10.738-5.454,23.16,23.16,0,0,0-4.951.7,77.258,77.258,0,0,0-13.821,5.177A156.88,156.88,0,0,0,162.043,130.423Zm48.337,10.534a35.127,35.127,0,0,0-4.03.775c-5.52,1.619-11.146,2.795-16.721,4.183-7.713,1.919-15.2,4.57-22.691,7.2a175.387,175.387,0,0,0-16.4,6.546c-2.726,1.28-5.382,2.713-8.052,4.112a11.774,11.774,0,0,0-1.685,1.174,2.226,2.226,0,0,0-.529,2.292,1.913,1.913,0,0,0,1.407,1.369,20.374,20.374,0,0,0,2.445.25,162.9,162.9,0,0,0,19.046.169c4.343-.127,8.447-0.246,12.55-0.367,7.525-.221,15.025-0.846,22.532-1.372,3.818-.267,7.656-0.247,11.486-0.338,0.819-.019,1.641.032,2.461,0.074,2.759,0.138,4.69-1.221,6.113-3.467a13.364,13.364,0,0,0,1.892-5.44,34.325,34.325,0,0,0-.1-9.512,13.764,13.764,0,0,0-.891-3.182,6.665,6.665,0,0,0-4.77-4.171A9.846,9.846,0,0,0,210.38,140.957Zm2.812,30.366a68.56,68.56,0,0,0-10.215-.806q-3.881.255-7.762,0.513c-0.681.046-1.361,0.126-2.042,0.166-10.636.62-21.275,1.207-31.934,1.194q-4.507-.006-9.014.018a12.874,12.874,0,0,0-1.629.125,2.515,2.515,0,0,0-1.956,2.742,2.047,2.047,0,0,0,1.071,1.662,17.586,17.586,0,0,0,2.288.879,224.758,224.758,0,0,0,22.624,5.745c5.886,1.219,11.812,2.2,17.765,3.013a45.709,45.709,0,0,0,10.629.239,20.147,20.147,0,0,0,8.171-2.512,10.592,10.592,0,0,0,4.352-4.265,6.827,6.827,0,0,0-.345-7.426A2.79,2.79,0,0,0,213.192,171.323Zm-1.217,27.547c-2.142-.9-4.269-1.858-6.458-2.627a226.78,226.78,0,0,0-26.86-7.436c-3.335-.729-6.708-1.279-10.063-1.912l-0.024.124c-0.937-.119-1.874-0.243-2.813-0.342a0.4,0.4,0,0,0-.2.287,0.443,0.443,0,0,0,.123.365c0.846,0.436,1.689.884,2.563,1.255,3.907,1.654,7.829,3.269,11.735,4.925a202.275,202.275,0,0,1,19.254,9.221,36.326,36.326,0,0,0,8.706,3.589,11.928,11.928,0,0,0,4.054.415,5.926,5.926,0,0,0,1.578-.392,2.906,2.906,0,0,0,1.678-3.028A5.475,5.475,0,0,0,211.975,198.87Zm-7.116,31.165a45.873,45.873,0,0,0-7.915-13.943,132.43,132.43,0,0,0-29.126-25.276,56.674,56.674,0,0,0-8.8-4.421,139.861,139.861,0,0,0-15.476-5.406c-0.394-.111-0.782-0.245-1.181-0.336a2.274,2.274,0,0,0-2.646,1.438,1.772,1.772,0,0,0,.159,1.943,9.022,9.022,0,0,0,1.11,1.21,158.9,158.9,0,0,1,19.521,22.311c5.074,6.856,9.988,13.827,14.536,21.056q1.758,2.794,3.6,5.539a24.055,24.055,0,0,0,7.284,7.175,17.057,17.057,0,0,0,8.712,2.793,14.5,14.5,0,0,0,8.922-3.066,6.114,6.114,0,0,0,2.486-5.787A19.51,19.51,0,0,0,204.859,230.035ZM172.632,231.7a142.61,142.61,0,0,0-10.443-15.347c-2.885-3.679-5.666-7.441-8.478-11.179-3.723-4.947-7.523-9.836-11.7-14.4-2.315-2.532-4.785-4.922-7.216-7.345a7.075,7.075,0,0,0-1.658-1.189,1.92,1.92,0,0,0-1.954.095,1.894,1.894,0,0,0-.779,1.792c0.335,1.336.681,2.671,1.067,3.994,3.089,10.6,6.79,20.982,10.673,31.3,3.639,9.674,7.678,19.192,11.1,28.95a15.342,15.342,0,0,0,.812,1.9,2.591,2.591,0,0,0,.75.962,24.471,24.471,0,0,0,10.512,4.364,6.214,6.214,0,0,0,.819,0,11.574,11.574,0,0,0,5.165-1.1,16.206,16.206,0,0,0,4.736-3.224,7.141,7.141,0,0,0,2.261-5.563,13.6,13.6,0,0,0-1.411-5.991C175.525,237.017,174.173,234.3,172.632,231.7Zm-22.42,18.834a69.338,69.338,0,0,0-3.282-10.653c-6.365-15.859-11.815-32.036-16.605-48.446a17.916,17.916,0,0,0-.652-1.946,0.869,0.869,0,0,0-.613-0.45,0.73,0.73,0,0,0-.594.389,11.979,11.979,0,0,0-.441,2.425c-0.122,3.17-.177,6.343-0.257,9.515a185.813,185.813,0,0,0,1.445,21.044c0.72,6.166,1.607,12.3,2.726,18.4a44.09,44.09,0,0,0,2.556,9.139,24.682,24.682,0,0,0,3.722,6.4,13.174,13.174,0,0,0,4.449,3.58,8.988,8.988,0,0,0,3.961.88,4.728,4.728,0,0,0,3.895-1.913,3.242,3.242,0,0,0,.786-2.681C150.957,254.317,150.635,252.412,150.212,250.531Zm-20.641-79.463a0.991,0.991,0,0,0,.768.85,5.373,5.373,0,0,0,1.072.185c1.474-.139,2.856-0.109,4.069-0.867a1.007,1.007,0,0,0,.647-0.94,1.523,1.523,0,0,0-.97-1.2,3.47,3.47,0,0,0-.794-0.137,11.228,11.228,0,0,0-4.314,1.076A0.977,0.977,0,0,0,129.571,171.068Zm1.682-8.024a5.378,5.378,0,0,0-4.126,4.075,1.772,1.772,0,0,0,.07.535,2.438,2.438,0,0,0,.9.518,1.7,1.7,0,0,0,1.134-.316,8.521,8.521,0,0,0,2.965-3.827,0.857,0.857,0,0,0-.227-0.7A0.923,0.923,0,0,0,131.253,163.044Zm-1.919,17.075a1.478,1.478,0,0,0,.481-1.053,10.153,10.153,0,0,0-1.845-4.061,1.522,1.522,0,0,0-1.1-.269,0.85,0.85,0,0,0-.7.866,2.83,2.83,0,0,0-.051.586,5.145,5.145,0,0,0,1.049,3.69A1.507,1.507,0,0,0,129.334,180.119Zm-3.622,67.2a161.291,161.291,0,0,1-1.427-16.513q-0.243-7.255-.521-14.507c-0.038-.961-0.2-1.916-0.319-2.872a0.608,0.608,0,0,0-.23-0.213,0.982,0.982,0,0,0-.242.311,188.557,188.557,0,0,0-3.537,23.336c-0.185,2.2-.476,4.4-0.648,6.6s-0.258,4.415-.381,6.624a45.994,45.994,0,0,0,.18,11.165,4.764,4.764,0,0,0,2.6,3.5,2.775,2.775,0,0,0,3.886-1.119,10.723,10.723,0,0,0,.869-2.309,22.054,22.054,0,0,0,.524-7.411C126.248,251.706,126.012,249.506,125.712,247.315Zm-4.867-54.593a13.79,13.79,0,0,0,.015-1.652,0.417,0.417,0,0,0-.169-0.295,0.531,0.531,0,0,0-.344.19,6.148,6.148,0,0,0-.645,1.049c-5.683,13.345-12.452,26.137-19.348,38.866-1.38,2.545-2.8,5.069-4.177,7.614a48.019,48.019,0,0,0-3.191,7.174,36.623,36.623,0,0,0-1.079,4.933,7.5,7.5,0,0,0,2.191,5.533,5.4,5.4,0,0,0,7.126.767,13.773,13.773,0,0,0,4.081-4.029,31.421,31.421,0,0,0,4.331-8.433c1.027-3.146,2.047-6.3,2.889-9.5,2.07-7.876,4.068-15.773,5.664-23.765C119.407,205.072,120.228,198.912,120.845,192.722Zm-2.222-24.963a0.983,0.983,0,0,0,1.087-.336,3.928,3.928,0,0,0-1.248-3.294,8.444,8.444,0,0,0-2.209-.989,1.02,1.02,0,0,0-1.136.9,2.358,2.358,0,0,0,.188.775A7.757,7.757,0,0,0,118.623,167.759Zm-5.533,4.129a1.825,1.825,0,0,0,.323.693,3.4,3.4,0,0,0,4.96-.41,1.3,1.3,0,0,0-.223-1.47c-0.9-.651-1.826-1.152-2.925-0.467-0.671.418-1.327,0.86-1.978,1.31A0.844,0.844,0,0,0,113.09,171.888Zm2.615,21.532c0.837-1.891,1.614-3.808,2.384-5.729a2.151,2.151,0,0,0-.688-2.584,2.393,2.393,0,0,0-2.7-.28,13.48,13.48,0,0,0-2.075,1.329c-3.177,2.4-6.408,4.728-9.486,7.249a148.594,148.594,0,0,0-22.191,22.643c-3.079,3.878-6.019,7.874-8.9,11.906a88.552,88.552,0,0,1-6.1,7.8,35.443,35.443,0,0,0-3.313,4.211c-1.86,2.839-1.686,4.53.728,6.993a49.636,49.636,0,0,0,4.615,4.1,14.142,14.142,0,0,0,9.543,3.176,14.619,14.619,0,0,0,6.4-1.182,9.554,9.554,0,0,0,5.082-4.607,40.373,40.373,0,0,0,1.8-4.17,85.239,85.239,0,0,1,5.7-12.383C103.406,219.325,109.9,206.546,115.705,193.42ZM68.773,226.961A158.58,158.58,0,0,1,85.94,206.417q5.6-5.764,11.289-11.434a109.254,109.254,0,0,1,12.455-10.747,10.356,10.356,0,0,0,1.562-1.327,1.958,1.958,0,0,0,.388-1.1,1.187,1.187,0,0,0-1.282-.754,14.762,14.762,0,0,0-1.629.151c-1.614.282-3.232,0.552-4.83,0.908q-4.6,1.028-9.171,2.152a62.549,62.549,0,0,0-15.9,6.494,153.9,153.9,0,0,0-23.271,16.158c-1.362,1.148-2.645,2.393-3.954,3.6a17.1,17.1,0,0,0-4.116,6.115c-1.689,4.062-2.83,8.872-2.7,12.036,0.052,0.825.06,1.657,0.165,2.476a7.392,7.392,0,0,0,1.344,3.43,17.423,17.423,0,0,0,3.388,3.581,5.614,5.614,0,0,0,6.521.509,6.173,6.173,0,0,0,.7-0.423C61.393,235.063,65.6,231.577,68.773,226.961Zm4.4-37.831c2.527-.874,5.02-1.85,7.528-2.782a22.585,22.585,0,0,0-6.76.137,208.048,208.048,0,0,0-30.913,6.378c-1.964.582-3.888,1.315-5.8,2.061-2.137.834-3.1,2.6-3.451,4.782a2.4,2.4,0,0,0,1.318,2.356,5.025,5.025,0,0,0,3.21.355,35.043,35.043,0,0,0,4.374-1.088,36.636,36.636,0,0,0,4.577-1.816A236.879,236.879,0,0,1,73.169,189.13Zm7.7-2.845-0.167.063c0.064,0.01.128,0.011,0.192,0.022Z"/>
  <text id="Payment" class="cls-3" transform="translate(409.157 248.971) scale(18.32)">Payment</text>
</svg>
